<?xml version="1.0" encoding="UTF-8"?>
<svg xmlns:xlink="http://www.w3.org/1999/xlink" width="20px" height="20px" viewBox="0 0 20 20" version="1.1" xmlns="http://www.w3.org/2000/svg">
    <!-- Generator: Sketch 41.2 (35397) - http://www.bohemiancoding.com/sketch -->
    <title>ic_search</title>
    <desc>Created with Sketch.</desc>
    <defs></defs>
    <g id="Page-1" stroke="none" stroke-width="1" fill="none" fill-rule="evenodd" opacity="0.900000036">
        <g id="web" transform="translate(-6.000000, -149.000000)">
            <g id="search" transform="translate(4.000000, 118.000000)" fill="#CECECE">
                <g transform="translate(3.000000, 32.000000)" id="search-off">
                    <path d="M7.77495816,2.26769613 C10.8162626,2.26769613 13.2822202,4.73235786 13.2822202,7.77495816 C13.2822202,10.8162626 10.8162626,13.2822202 7.77495816,13.2822202 C4.73365369,13.2822202 2.26769613,10.8162626 2.26769613,7.77495816 C2.26769613,4.73235786 4.73365369,2.26769613 7.77495816,2.26769613 Z M14.0337995,12.3725501 C14.9823444,11.0844987 15.5499163,9.49711139 15.5499163,7.77495816 C15.5499163,3.4805896 12.0680309,0 7.77495816,0 C3.4805896,0 0,3.4805896 0,7.77495816 C0,12.0680309 3.4805896,15.5499163 7.77495816,15.5499163 C9.49840721,15.5499163 11.0844987,14.9823444 12.3725501,14.0337995 L15.9969764,17.65693 C16.4531073,18.1143567 17.2007991,18.1143567 17.65693,17.65693 C18.1143567,17.2007991 18.1143567,16.4531073 17.65693,15.9969764 L14.0337995,12.3725501 Z"></path>
                </g>
            </g>
            <g id="cut" transform="translate(0.000000, 36.000000)"></g>
        </g>
    </g>
</svg>
