<?xml version="1.0" encoding="UTF-8"?>
<svg xmlns:xlink="http://www.w3.org/1999/xlink" width="20px" height="20px" viewBox="0 0 20 20" version="1.1" xmlns="http://www.w3.org/2000/svg">
    <!-- Generator: Sketch 41.2 (35397) - http://www.bohemiancoding.com/sketch -->
    <title>ic_search_on</title>
    <desc>Created with Sketch.</desc>
    <defs></defs>
    <g id="Page-1" stroke="none" stroke-width="1" fill="none" fill-rule="evenodd" opacity="0.900000036">
        <g id="web" transform="translate(-46.000000, -149.000000)">
            <g id="search" transform="translate(4.000000, 118.000000)" fill="#F05500">
                <g transform="translate(3.000000, 32.000000)" id="search-on">
                    <path d="M47.7749582,2.26769613 C50.8162626,2.26769613 53.2822202,4.73235786 53.2822202,7.77495816 C53.2822202,10.8162626 50.8162626,13.2822202 47.7749582,13.2822202 C44.7336537,13.2822202 42.2676961,10.8162626 42.2676961,7.77495816 C42.2676961,4.73235786 44.7336537,2.26769613 47.7749582,2.26769613 Z M54.0337995,12.3725501 C54.9823444,11.0844987 55.5499163,9.49711139 55.5499163,7.77495816 C55.5499163,3.4805896 52.0680309,0 47.7749582,0 C43.4805896,0 40,3.4805896 40,7.77495816 C40,12.0680309 43.4805896,15.5499163 47.7749582,15.5499163 C49.4984072,15.5499163 51.0844987,14.9823444 52.3725501,14.0337995 L55.9969764,17.65693 C56.4531073,18.1143567 57.2007991,18.1143567 57.65693,17.65693 C58.1143567,17.2007991 58.1143567,16.4531073 57.65693,15.9969764 L54.0337995,12.3725501 Z"></path>
                </g>
            </g>
            <g id="cut" transform="translate(0.000000, 36.000000)"></g>
        </g>
    </g>
</svg>
