<?xml version="1.0" encoding="UTF-8"?>
<svg xmlns:xlink="http://www.w3.org/1999/xlink" width="30px" height="30px" viewBox="0 0 30 30" version="1.1" xmlns="http://www.w3.org/2000/svg">
    <!-- Generator: Sketch 41.2 (35397) - http://www.bohemiancoding.com/sketch -->
    <title>ic_review</title>
    <desc>Created with Sketch.</desc>
    <defs></defs>
    <g id="Page-1" stroke="none" stroke-width="1" fill="none" fill-rule="evenodd" opacity="0.900000036">
        <g id="web" transform="translate(-141.000000, -1321.000000)">
            <g id="푸터-아이콘" transform="translate(4.000000, 1288.000000)" fill="#B1B6BA">
                <g id="review" transform="translate(143.000000, 35.000000)">
                    <path d="M4.53890662,19 C4.33383556,19 4.0155643,19.09375 4.00044999,19.484375 C3.98533567,19.875 4.35460867,20.015625 4.55967973,20.015625 L13.7794134,19.984375 C13.9844845,19.984375 14.1875,19.8125 14.1875,19.515625 C14.1875,19.21875 14.0050641,19 13.7999931,19 L4.53890662,19 Z" id="Fill-9"></path>
                    <path d="M4.53890662,16 C4.33383556,16 4.0155643,16.09375 4.00044999,16.484375 C3.98533567,16.875 4.35460867,17.015625 4.55967973,17.015625 L13.7794134,16.984375 C13.9844845,16.984375 14.1875,16.8125 14.1875,16.515625 C14.1875,16.21875 14.0050641,16 13.7999931,16 L4.53890662,16 Z" id="Fill-9-Copy"></path>
                    <path d="M4.53890662,13 C4.33383556,13 4.0155643,13.09375 4.00044999,13.484375 C3.98533567,13.875 4.35460867,14.015625 4.55967973,14.015625 L13.7794134,13.984375 C13.9844845,13.984375 14.1875,13.8125 14.1875,13.515625 C14.1875,13.21875 14.0050641,13 13.7999931,13 L4.53890662,13 Z" id="Fill-9-Copy-2"></path>
                    <path d="M4.53890662,10 C4.33383556,10 4.0155643,10.09375 4.00044999,10.484375 C3.98533567,10.875 4.35460867,11.015625 4.55967973,11.015625 L13.7794134,10.984375 C13.9844845,10.984375 14.1875,10.8125 14.1875,10.515625 C14.1875,10.21875 14.0050641,10 13.7999931,10 L4.53890662,10 Z" id="Fill-9-Copy-3"></path>
                    <path d="M4.53890662,6 C4.33383556,6 4.0155643,6.09375 4.00044999,6.484375 C3.98533567,6.875 4.35460867,7.015625 4.55967973,7.015625 L8.77941343,6.984375 C8.98448449,6.984375 9.1875,6.8125 9.1875,6.515625 C9.1875,6.21875 9.00506414,6 8.79999308,6 L4.53890662,6 Z" id="Fill-9-Copy-4"></path>
                    <g id="Group-13" transform="translate(0.000000, 0.978700)">
                        <path d="M0.9539,22.0733 L0.9539,0.9693 L11.96,1.0213 L12.08,6.0213 L17.04,6.0213 L17.0589,22.0733 L0.9539,22.0733 Z M12.6389,1.5113 L16.5169,5.3833 L12.6389,5.3833 L12.6389,1.5113 Z M12.4139,0.0213 L-0.0001,0.0213 L-0.0001,23.0003 L17.9999,23.0003 L17.9999,5.6073 L12.4139,0.0213 Z" id="Fill-11"></path>
                    </g>
                </g>
            </g>
            <g id="cut" transform="translate(0.000000, 35.000000)"></g>
        </g>
    </g>
</svg>
